<svg width="65" height="79" viewBox="0 0 65 79" fill="none" xmlns="http://www.w3.org/2000/svg">
<path d="M24.735 15.7946L44.3047 62.6033H38.685L23.4127 22.0754L24.735 15.7946ZM10.5204 58.1737C10.2119 59.0552 10.1678 59.8045 10.3882 60.4216C10.6086 61.0386 10.9612 61.5235 11.446 61.8761C11.9749 62.1846 12.5038 62.3389 13.0328 62.3389H13.6278V63H0.338859V62.3389C0.338859 62.3389 0.449049 62.3389 0.66943 62.3389C0.845734 62.3389 0.933886 62.3389 0.933886 62.3389C1.94764 62.3389 2.98342 62.0303 4.04125 61.4133C5.14315 60.7521 6.04671 59.6723 6.75192 58.1737H10.5204ZM24.735 15.7946L25.33 20.4225L8.73535 62.8017H4.7685L21.6937 22.6043C21.6937 22.6043 21.8039 22.3398 22.0243 21.8109C22.2887 21.2379 22.5752 20.5548 22.8838 19.7614C23.2364 18.968 23.5229 18.1967 23.7432 17.4474C24.0077 16.6981 24.1399 16.1472 24.1399 15.7946H24.735ZM34.057 44.9509V46.9343H13.3633V44.9509H34.057ZM37.0322 58.1737H42.4535C43.1147 59.6723 43.9962 60.7521 45.0981 61.4133C46.2 62.0303 47.2578 62.3389 48.2716 62.3389C48.2716 62.3389 48.3597 62.3389 48.536 62.3389C48.7123 62.3389 48.8005 62.3389 48.8005 62.3389V63H33.9248V62.3389H34.5198C35.3573 62.3389 36.1066 61.9863 36.7677 61.281C37.4289 60.5317 37.517 59.496 37.0322 58.1737Z" fill="black"/>
<path d="M27.7044 16.7201V63C27.7044 64.8512 27.3959 66.5702 26.7788 68.1569C26.1617 69.7877 25.3023 71.1981 24.2004 72.3882C23.0985 73.5783 21.8203 74.5038 20.3657 75.165C18.9112 75.8702 17.3465 76.2228 15.6716 76.2228V75.6278C17.1262 75.0989 18.4264 74.1733 19.5724 72.851C20.7624 71.5728 21.688 70.0522 22.3492 68.2891C23.0544 66.5261 23.407 64.6969 23.407 62.8017V16.7201H27.7044ZM23.6053 21.5465H23.407C23.3629 20.4005 22.9222 19.4308 22.0847 18.6375C21.2913 17.8 20.3217 17.3813 19.1757 17.3813C19.1757 17.3813 19.0214 17.3813 18.7129 17.3813C18.4484 17.3813 18.3162 17.3813 18.3162 17.3813V16.7201H23.6053V21.5465ZM27.5061 21.5465V16.7201H32.7952V17.3813C32.7952 17.3813 32.6409 17.3813 32.3324 17.3813C32.0679 17.3813 31.9357 17.3813 31.9357 17.3813C30.7897 17.3813 29.798 17.8 28.9606 18.6375C28.1672 19.4308 27.7485 20.4005 27.7044 21.5465H27.5061Z" fill="#8D965E"/>
</svg>
